<svg xmlns="http://www.w3.org/2000/svg" width="495" height="165" viewBox="0 0 495 165" role="img">
  <rect width="100%" height="100%" rx="8" fill="#0d1117" stroke="#30363d"/>
  <rect x="18" y="18" width="106" height="129" rx="12" fill="#11161c" stroke="#30363d" />
  <rect x="18" y="18" width="106" height="5" rx="2.5" fill="#58a6ff" />
  <text x="32" y="48" fill="#8b949e" font-family="Arial, sans-serif" font-size="11" font-weight="700">PROFILE SNAPSHOT</text>
  <text x="32" y="76" fill="#c9d1d9" font-family="Arial, sans-serif" font-size="18" font-weight="700">GitHub</text>
  <text x="32" y="96" fill="#c9d1d9" font-family="Arial, sans-serif" font-size="18" font-weight="700">Activity</text>
  <text x="32" y="122" fill="#8b949e" font-family="Arial, sans-serif" font-size="10">Updated 2026-05-23</text>
  <rect x="144" y="18" width="162" height="55" rx="12" fill="#11161c" stroke="#30363d" />
  <text x="158" y="37" fill="#8b949e" font-family="Arial, sans-serif" font-size="11">Public Repos</text>
  <text x="158" y="59" fill="#c9d1d9" font-family="Arial, sans-serif" font-size="22" font-weight="700">119</text>
  <rect x="315" y="18" width="162" height="55" rx="12" fill="#11161c" stroke="#30363d" />
  <text x="329" y="37" fill="#8b949e" font-family="Arial, sans-serif" font-size="11">Followers</text>
  <text x="329" y="59" fill="#c9d1d9" font-family="Arial, sans-serif" font-size="22" font-weight="700">32</text>
  <rect x="144" y="79" width="162" height="55" rx="12" fill="#11161c" stroke="#30363d" />
  <text x="158" y="98" fill="#8b949e" font-family="Arial, sans-serif" font-size="11">Following</text>
  <text x="158" y="120" fill="#c9d1d9" font-family="Arial, sans-serif" font-size="22" font-weight="700">104</text>
  <rect x="315" y="79" width="162" height="55" rx="12" fill="#11161c" stroke="#30363d" />
  <text x="329" y="98" fill="#8b949e" font-family="Arial, sans-serif" font-size="11">Repo Stars</text>
  <text x="329" y="120" fill="#c9d1d9" font-family="Arial, sans-serif" font-size="22" font-weight="700">8</text>
  <text x="144" y="150" fill="#8b949e" font-family="Arial, sans-serif" font-size="10">Public profile only · generated from GitHub API</text>
</svg>
