<svg xmlns="http://www.w3.org/2000/svg" width="495" height="165" viewBox="0 0 495 165" role="img">
  <rect width="100%" height="100%" rx="8" fill="#040F0F" stroke="#E4E2E2"/>
  <rect x="18" y="18" width="106" height="129" rx="12" fill="#071A1A" stroke="#E4E2E2" />
  <rect x="18" y="18" width="106" height="5" rx="2.5" fill="#2F97C1" />
  <text x="32" y="48" fill="#0CF574" font-family="Arial, sans-serif" font-size="10" font-weight="700">SUMMARY</text>
  <text x="32" y="76" fill="#E4E2E2" font-family="Arial, sans-serif" font-size="18" font-weight="700">Public</text>
  <text x="32" y="96" fill="#E4E2E2" font-family="Arial, sans-serif" font-size="18" font-weight="700">Activity</text>
  <text x="32" y="122" fill="#0CF574" font-family="Arial, sans-serif" font-size="10">Updated 2026-06-29</text>
  <rect x="144" y="18" width="162" height="55" rx="12" fill="#071A1A" stroke="#E4E2E2" />
  <text x="158" y="37" fill="#0CF574" font-family="Arial, sans-serif" font-size="11">Repos</text>
  <text x="158" y="59" fill="#E4E2E2" font-family="Arial, sans-serif" font-size="22" font-weight="700">121</text>
  <rect x="315" y="18" width="162" height="55" rx="12" fill="#071A1A" stroke="#E4E2E2" />
  <text x="329" y="37" fill="#0CF574" font-family="Arial, sans-serif" font-size="11">Followers</text>
  <text x="329" y="59" fill="#E4E2E2" font-family="Arial, sans-serif" font-size="22" font-weight="700">31</text>
  <rect x="144" y="79" width="162" height="55" rx="12" fill="#071A1A" stroke="#E4E2E2" />
  <text x="158" y="98" fill="#0CF574" font-family="Arial, sans-serif" font-size="11">Following</text>
  <text x="158" y="120" fill="#E4E2E2" font-family="Arial, sans-serif" font-size="22" font-weight="700">106</text>
  <rect x="315" y="79" width="162" height="55" rx="12" fill="#071A1A" stroke="#E4E2E2" />
  <text x="329" y="98" fill="#0CF574" font-family="Arial, sans-serif" font-size="11">Stars</text>
  <text x="329" y="120" fill="#E4E2E2" font-family="Arial, sans-serif" font-size="22" font-weight="700">8</text>
  <text x="144" y="150" fill="#0CF574" font-family="Arial, sans-serif" font-size="10">GitHub API data</text>
</svg>
