<svg xmlns="http://www.w3.org/2000/svg" width="495" height="165" viewBox="0 0 495 165" role="img">
  <rect width="100%" height="100%" rx="8" fill="#0d1117" stroke="#30363d"/>
  <text x="24" y="38" fill="#c9d1d9" font-family="Arial, sans-serif" font-size="20" font-weight="700">Top Languages</text>
  <text x="24" y="68" fill="#8b949e" font-family="Arial, sans-serif" font-size="12">By bytes across public repositories</text>
  <text x="24" y="92" fill="#c9d1d9" font-family="Arial, sans-serif" font-size="12">C</text>
  <rect x="110" y="82" width="260" height="10" rx="5" fill="#161b22" stroke="#30363d" />
  <rect x="110" y="82" width="213" height="10" rx="5" fill="#58a6ff" />
  <text x="382" y="92" fill="#8b949e" font-family="Arial, sans-serif" font-size="12">82.2%</text>
  <text x="24" y="112" fill="#c9d1d9" font-family="Arial, sans-serif" font-size="12">Python</text>
  <rect x="110" y="102" width="260" height="10" rx="5" fill="#161b22" stroke="#30363d" />
  <rect x="110" y="102" width="12" height="10" rx="5" fill="#58a6ff" />
  <text x="382" y="112" fill="#8b949e" font-family="Arial, sans-serif" font-size="12">5.0%</text>
  <text x="24" y="132" fill="#c9d1d9" font-family="Arial, sans-serif" font-size="12">CodeQL</text>
  <rect x="110" y="122" width="260" height="10" rx="5" fill="#161b22" stroke="#30363d" />
  <rect x="110" y="122" width="7" height="10" rx="5" fill="#58a6ff" />
  <text x="382" y="132" fill="#8b949e" font-family="Arial, sans-serif" font-size="12">2.8%</text>
  <text x="24" y="152" fill="#c9d1d9" font-family="Arial, sans-serif" font-size="12">C++</text>
  <rect x="110" y="142" width="260" height="10" rx="5" fill="#161b22" stroke="#30363d" />
  <rect x="110" y="142" width="6" height="10" rx="5" fill="#58a6ff" />
  <text x="382" y="152" fill="#8b949e" font-family="Arial, sans-serif" font-size="12">2.7%</text>
  <text x="24" y="172" fill="#c9d1d9" font-family="Arial, sans-serif" font-size="12">C#</text>
  <rect x="110" y="162" width="260" height="10" rx="5" fill="#161b22" stroke="#30363d" />
  <rect x="110" y="162" width="6" height="10" rx="5" fill="#58a6ff" />
  <text x="382" y="172" fill="#8b949e" font-family="Arial, sans-serif" font-size="12">2.2%</text>
</svg>
